#!OML:ASF F:\VICON\USERDATA\Patient Classification 1\PLAYGROUND\JustinFriday\JustinFriday.ASF
:FULLY-SPECIFIED
:DEGREES
3939
root 34.9863 28.5008 -9.20431 250.158 -96.1671 -236.255
lowerback 40.2379 2.40378 0.206597
upperback 11.3577 1.84185 3.64811
thorax -6.91012 0.129648 3.12429
lowerneck -4.95448 -5.32248 -5.23365
upperneck 21.5039 -9.25425 9.98227
head 8.15105 -4.06647 3.3734
rclavicle 1.22253e-014 1.96797e-014
rhumerus 40.8459 4.15803 -58.9039
rradius 63.7676
rwrist 8.31817
rhand -23.3118 -3.51044
rfingers 7.12502
rthumb 3.14201 -393.467
lclavicle 1.22253e-014 1.96797e-014
lhumerus 45.3438 -14.765 74.736
lradius 63.3961
lwrist -32.7581
lhand -10.1398 -13.1423
lfingers 7.12502
lthumb 15.849 16.229
rfemur -21.4037 2.58284 27.5573
rtibia 18.2926
rfoot 1.8425 -7.53047
rtoes 9.58307
lfemur -64.2294 7.64664 -19.3862
ltibia 76.9896
lfoot -34.823 -15.1895
ltoes 8.50235
3940
root 34.9937 28.4016 -9.21298 246.641 -96.158 -233.131
lowerback 40.4452 2.28394 0.174443
upperback 11.2068 1.71924 3.75224
thorax -7.14204 0.0761786 3.30045
lowerneck -4.51003 -4.97558 -4.454
upperneck 21.484 -8.57642 8.58245
head 7.90868 -3.82092 2.85132
rclavicle 1.61016e-014 8.15017e-015
rhumerus 40.4338 4.42726 -58.4767
rradius 64.4201
rwrist 7.84761
rhand -23.005 -3.68946
rfingers 7.12502
rthumb 3.43824 -393.641
lclavicle 1.61016e-014 8.15017e-015
lhumerus 44.5457 -14.6518 74.6344
lradius 64.4923
lwrist -32.899
lhand -11.0799 -14.31
lfingers 7.12502
lthumb 14.9435 15.1309
rfemur -20.6736 5.11729 26.8544
rtibia 18.022
rfoot 1.11341 -10.3953
rtoes 15.9126
lfemur -64.3876 7.40983 -19.5545
ltibia 77.892
lfoot -35.0056 -15.8601
ltoes 10.074
3941
root 34.9987 28.3018 -9.2249 244.499 -96.1572 -231.411
lowerback 40.7233 2.22646 0.172727
upperback 11.1718 1.64343 3.69827
thorax -7.25936 0.0401638 3.27393
lowerneck -4.42653 -4.64304 -4.17517
upperneck 21.8247 -8.14739 8.30564
head 7.95175 -3.6242 2.75497
rclavicle 2.5842e-014 2.84262e-014
rhumerus 40.3074 4.35751 -58.607
rradius 64.9197
rwrist 7.69608
rhand -22.6907 -4.29609
rfingers 7.12502
rthumb 3.74184 -394.243
lclavicle 2.5842e-014 2.84262e-014
lhumerus 43.9558 -14.4259 73.8614
lradius 65.8822
lwrist -32.7068
lhand -11.5772 -15.6581
lfingers 7.12502
lthumb 14.4644 13.8178
rfemur -20.9245 -6.43577 29.1798
rtibia 18.3886
rfoot 2.02619 1.64558
rtoes 17.8311
lfemur -64.8017 9.19213 -20.3991
ltibia 78.8645
lfoot -34.9905 -18.6971
ltoes 14.353
3942
root 35.0109 28.2496 -9.24248 243.04 -96.1777 -230.228
lowerback 40.6961 2.28337 0.0394879
upperback 11.3514 1.63509 3.73016
thorax -7.05677 0.0231052 3.38
lowerneck -4.28016 -5.14413 -5.08101
upperneck 21.2938 -8.93106 9.54143
head 7.90124 -3.96913 3.24861
rclavicle 1.49089e-015 4.90501e-014
rhumerus 40.4454 4.00657 -58.6517
rradius 65.4813
rwrist 7.72766
rhand -22.3095 -4.92893
rfingers 7.12502
rthumb 4.10987 -394.869
lclavicle 1.49089e-015 4.90501e-014
lhumerus 44.1084 -15.0684 74.5768
lradius 66.3004
lwrist -34.6253
lhand -13.1377 -16.0868
lfingers 7.12502
lthumb 12.9605 13.4907
rfemur -20.1656 3.64418 27.2949
rtibia 19.0089
rfoot -1.1369 -7.73239
rtoes 18.3516
lfemur -64.5636 6.98104 -19.4357
ltibia 79.5711
lfoot -35.868 -15.9969
ltoes 14.4623
3943
root 35.0189 28.1504 -9.26005 241.427 -96.1928 -228.894
lowerback 40.6835 2.43311 -0.231779
upperback 11.4527 1.72423 4.01087
thorax -6.96982 0.0463138 3.78552
lowerneck -3.07711 -5.89721 -6.02937
upperneck 19.8367 -9.84171 10.2087
head 7.35979 -4.47037 3.57503
rclavicle -1.15295e-014 7.65321e-015
rhumerus 40.3607 3.83754 -58.056
rradius 66.2095
rwrist 7.53052
rhand -21.9654 -5.41644
rfingers 7.12502
rthumb 4.44218 -395.35
lclavicle -1.15295e-014 7.65321e-015
lhumerus 43.7104 -15.4588 74.7329
lradius 67.4138
lwrist -35.5067
lhand -15.932 -16.595
lfingers 7.12502
lthumb 10.2657 13.1345
rfemur -19.933 3.62267 27.3847
rtibia 19.4809
rfoot -3.17895 -7.65451
rtoes 17.8717
lfemur -65.1161 8.68692 -20.3626
ltibia 80.4406
lfoot -36.563 -16.47
ltoes 12.0218
3944
root 35.0355 28.051 -9.2751 239.487 -96.3512 -227.282
lowerback 40.8339 2.4952 -0.316936
upperback 11.4203 1.7961 4.27828
thorax -7.07422 0.0701496 4.08781
lowerneck -2.25052 -6.15859 -6.22111
upperneck 19.1508 -10.0803 9.99935
head 7.01086 -4.64674 3.54317
rclavicle 2.40529e-014 3.51849e-014
rhumerus 40.2188 3.74948 -57.6203
rradius 66.7932
rwrist 7.30069
rhand -21.6686 -5.75108
rfingers 7.12502
rthumb 4.72873 -395.678
lclavicle 2.40529e-014 3.51849e-014
lhumerus 42.8737 -15.709 74.3702
lradius 68.8353
lwrist -34.9817
lhand -19.1973 -18.3084
lfingers 7.12502
lthumb 7.11471 11.552
rfemur -19.5558 3.67249 27.5515
rtibia 19.8355
rfoot -5.50596 -8.17747
rtoes 17.5877
lfemur -65.4864 9.13294 -20.5537
ltibia 81.2644
lfoot -36.9529 -16.822
ltoes 10.5601
3945
root 35.0599 27.9862 -9.29287 237.831 -96.5885 -225.994
lowerback 41.212 2.41859 -0.258649
upperback 11.3715 1.72367 4.27698
thorax -7.23525 0.0335934 4.08564
lowerneck -2.07124 -6.17865 -6.14653
upperneck 19.005 -10.1347 10.1483
head 6.94055 -4.66736 3.58074
rclavicle 2.88238e-014 6.20208e-014
rhumerus 40.3712 3.60449 -58.1035
rradius 67.0949
rwrist 7.41665
rhand -21.3799 -5.99173
rfingers 7.12502
rthumb 5.00757 -395.913
lclavicle 2.88238e-014 6.20208e-014
lhumerus 41.9658 -15.801 72.5604
lradius 70.84
lwrist -33.3879
lhand -22.9449 -19.4857
lfingers 7.12502
lthumb 3.4963 10.4654
rfemur -19.1662 4.48641 27.7366
rtibia 20.3371
rfoot -7.73034 -9.67675
rtoes 15.6785
lfemur -65.3769 7.42868 -19.5997
ltibia 81.9686
lfoot -36.9696 -16.3227
ltoes 11.8068
3946
root 35.078 27.8946 -9.31304 236.336 -96.8045 -224.893
lowerback 41.5136 2.36614 -0.218885
upperback 11.5449 1.63825 4.31819
thorax -7.12626 -0.0262376 4.14347
lowerneck -2.89822 -5.94129 -5.6356
upperneck 19.4539 -9.79224 9.71588
head 7.15587 -4.4662 3.35691
rclavicle 7.35503e-015 -1.27222e-014
rhumerus 41.0056 3.33093 -58.7572
rradius 67.2137
rwrist 7.79643
rhand -21.0507 -6.28469
rfingers 7.12502
rthumb 5.32536 -396.198
lclavicle 7.35503e-015 -1.27222e-014
lhumerus 41.5193 -16.4392 72.7266
lradius 71.9758
lwrist -34.2922
lhand -26.7283 -21.5286
lfingers 7.12502
lthumb -0.157625 8.45105
rfemur -18.9792 -1.78472 28.9878
rtibia 20.4994
rfoot -8.8769 -4.21777
rtoes 12.6143
lfemur -65.6456 7.65066 -19.5646
ltibia 82.7768
lfoot -36.8846 -17.6199
ltoes 14.3212
3947
root 35.0864 27.8256 -9.32485 236.24 -96.8289 -224.91
lowerback 41.1992 2.40069 -0.249471
upperback 11.7389 1.65157 4.41055
thorax -6.82334 -0.032447 4.25162
lowerneck -4.10497 -5.21003 -4.23456
upperneck 20.3753 -8.62793 7.86027
head 7.43233 -3.90718 2.58234
rclavicle 3.57812e-015 1.13307e-014
rhumerus 41.3768 3.08151 -58.9738
rradius 67.5104
rwrist 7.95004
rhand -20.6489 -6.53625
rfingers 7.12502
rthumb 5.71336 -396.439
lclavicle 3.57812e-015 1.13307e-014
lhumerus 40.577 -16.6595 72.2162
lradius 73.8498
lwrist -33.6033
lhand -28.4701 -25.7168
lfingers 7.12502
lthumb -1.83989 4.25501
rfemur -18.525 4.69492 28.1445
rtibia 20.7126
rfoot -10.8285 -10.5023
rtoes 14.1746
lfemur -66.08 8.23077 -19.8188
ltibia 83.5017
lfoot -37.1137 -18.2426
ltoes 15.3264
3948
root 35.1021 27.7789 -9.3395 235.644 -96.9514 -224.583
lowerback 41.049 2.47587 -0.247273
upperback 11.9333 1.72655 4.55458
thorax -6.5751 -0.0145859 4.37406
lowerneck -3.9215 -5.44817 -4.3397
upperneck 20.0327 -8.90577 7.88174
head 7.31241 -4.05063 2.58865
rclavicle 2.66371e-014 2.75317e-014
rhumerus 41.5845 2.64609 -59.1246
rradius 67.8733
rwrist 7.95793
rhand -20.1231 -6.51493
rfingers 7.12502
rthumb 6.22098 -396.404
lclavicle 2.66371e-014 2.75317e-014
lhumerus 39.4217 -16.766 69.9557
lradius 76.5822
lwrist -30.1058
lhand -30.2225 -30.2036
lfingers 7.12502
lthumb -3.5323 -0.253125
rfemur -18.5582 4.62264 28.3085
rtibia 21.4771
rfoot -12.5185 -10.4293
rtoes 15.5173
lfemur -65.8651 5.8711 -18.6862
ltibia 84.1785
lfoot -37.7156 -16.0695
ltoes 14.551
3949
root 35.1245 27.6886 -9.35496 235.361 -97.3511 -224.543
lowerback 41.4449 2.1099 0.318758
upperback 11.7605 1.50204 4.34819
thorax -6.83785 -0.101279 3.95029
lowerneck -3.57877 -5.36343 -4.26145
upperneck 19.9221 -8.86378 8.17941
head 7.2218 -4.01884 2.68649
rclavicle -1.80894e-014 1.73937e-014
rhumerus 41.6785 2.49276 -60.1286
rradius 68.0866
rwrist 8.23455
rhand -19.6086 -6.50586
rfingers 7.12502
rthumb 6.71762 -396.379
lclavicle -1.80894e-014 1.73937e-014
lhumerus 38.8589 -18.6686 70.5345
lradius 76.6494
lwrist -30.3161
lhand -33.7084 -35.2399
lfingers 7.12502
lthumb -6.89805 -5.37224
rfemur -18.5184 5.43489 28.6378
rtibia 21.9711
rfoot -13.7089 -11.4386
rtoes 16.7631
lfemur -66.6313 7.73395 -19.1209
ltibia 85.0969
lfoot -37.5274 -18.3664
ltoes 15.163
3950
root 35.1475 27.5789 -9.36831 235.421 -97.7594 -224.822
lowerback 41.5221 1.89994 0.688255
upperback 11.8018 1.38825 4.43694
thorax -6.79804 -0.15957 3.89976
lowerneck -3.37762 -5.2757 -4.10918
upperneck 19.6811 -8.6886 7.93995
head 7.0783 -3.9533 2.60451
rclavicle 2.16675e-014 1.98785e-016
rhumerus 41.9059 2.44281 -60.3949
rradius 68.5018
rwrist 8.26744
rhand -19.2442 -6.90454
rfingers 7.12502
rthumb 7.06939 -396.766
lclavicle 2.16675e-014 1.98785e-016
lhumerus 37.651 -18.7426 68.264
lradius 78.9235
lwrist -28.077
lhand -37.8693 -40.3832
lfingers 7.12502
lthumb -10.9132 -10.6868
rfemur -18.7289 6.85103 28.9433
rtibia 22.8813
rfoot -14.695 -13.1088
rtoes 17.0264
lfemur -67.7269 10.4571 -19.9556
ltibia 86.1922
lfoot -37.3335 -21.1978
ltoes 15.8236
3951
root 35.1721 27.542 -9.38775 234.958 -97.9781 -224.595
lowerback 41.3371 1.77961 0.902242
upperback 12.1653 1.25917 4.44622
thorax -6.32259 -0.239782 3.8464
lowerneck -3.60902 -5.19081 -3.61187
upperneck 19.3788 -8.47483 7.44041
head 6.96553 -3.84998 2.37236
rclavicle -1.08338e-014 -9.34288e-015
rhumerus 42.3331 2.18277 -60.3666
rradius 69.1405
rwrist 8.09725
rhand -18.6586 -7.2108
rfingers 7.12502
rthumb 7.63463 -397.053
lclavicle -1.08338e-014 -9.34288e-015
lhumerus 37.0755 -19.2735 67.0047
lradius 80.2762
lwrist -28.1174
lhand -41.2416 -44.3438
lfingers 7.12502
lthumb -14.1644 -14.8467
rfemur -19.1379 4.14665 29.6005
rtibia 23.8698
rfoot -14.757 -11.3895
rtoes 13.7561
lfemur -67.5684 8.38101 -18.8505
ltibia 86.8519
lfoot -38.0038 -18.9439
ltoes 14.4244
